<svg width="972" height="686" viewBox="0 0 972 686" fill="none" xmlns="http://www.w3.org/2000/svg">
<mask id="mask0" mask-type="alpha" maskUnits="userSpaceOnUse" x="0" y="0" width="992" height="744">
<rect width="992" height="744" fill="white"/>
</mask>
<g mask="url(#mask0)">
<path d="M620 620.428V620.428C620 688.911 564.483 744.428 496 744.428V744.428V620.428H620Z" fill="#3699FF"/>
<path d="M868 496.428C799.517 496.428 744 440.911 744 372.428H868V496.428Z" fill="#D6DA34"/>
<path d="M496.897 770.892V770.892C413.676 770.892 346.213 703.468 346.213 620.299V620.299H496.897V770.892Z" fill="#6ED47C"/>
<path d="M496 683.711V683.711C461.049 683.711 432.717 655.379 432.717 620.428V620.428H496V683.711Z" fill="#D5E155"/>
<path d="M990.14 62.62H928.14C893.899 62.62 866.14 90.3784 866.14 124.62V124.62H928.14C962.381 124.62 990.14 96.8616 990.14 62.62V62.62Z" fill="#6ED47C"/>
<path d="M619.704 561.982L619.704 437.768C619.704 369.167 675.22 313.554 743.704 313.554V313.554V437.768C743.704 506.369 688.187 561.982 619.704 561.982V561.982Z" fill="#2D3652"/>
<path d="M681.704 437.126V375.653C681.704 341.357 709.462 313.554 743.704 313.554V313.554V375.028C743.704 409.325 715.945 437.126 681.704 437.126V437.126Z" fill="#6ED47C"/>
<path d="M620 558.428H681.687C716.101 558.428 744 586.187 744 620.428V620.428H682.313C647.898 620.428 620 592.669 620 558.428V558.428Z" fill="#6ED47C"/>
<path d="M744 744.428V620.428C744 551.945 799.517 496.428 868 496.428V496.428V620.428C868 688.911 812.483 744.428 744 744.428V744.428Z" fill="#6ED47C"/>
<path d="M806 620V558.526C806 524.23 833.759 496.428 868 496.428V496.428V557.902C868 592.198 840.241 620 806 620V620Z" fill="#2D3652"/>
<path d="M740.641 497.58C740.641 483.621 751.965 472.306 765.935 472.306V472.306C779.905 472.306 791.229 483.621 791.229 497.58V497.58C791.229 511.538 779.905 522.853 765.935 522.853V522.853C751.965 522.853 740.641 511.538 740.641 497.58V497.58Z" fill="#FF743C"/>
<path d="M753.288 497.58C753.288 490.601 758.95 484.943 765.935 484.943V484.943C772.919 484.943 778.582 490.601 778.582 497.58V497.58C778.582 504.559 772.919 510.216 765.935 510.216V510.216C758.95 510.216 753.288 504.559 753.288 497.58V497.58Z" fill="#FFC700"/>
<path d="M868 310C868 275.759 840.241 248 806 248V248C771.759 248 744 275.759 744 310V310C744 344.241 771.759 372 806 372H868V310Z" fill="#FF743C"/>
<path d="M866.43 123.701V168.52C866.43 193.273 846.352 213.34 821.584 213.34V168.52C821.584 143.768 841.662 123.701 866.43 123.701Z" fill="#A04AE3"/>
<path d="M868 339.93C868 322.22 853.642 307.862 835.93 307.862V307.862C818.22 307.862 803.862 322.22 803.862 339.93V339.93C803.862 357.642 818.22 372 835.93 372H868V339.93Z" fill="#FFC700"/>
<path d="M620 682.428C620 648.187 647.759 620.428 682 620.428V620.428C716.241 620.428 744 648.187 744 682.428V682.428C744 716.669 716.241 744.428 682 744.428V744.428C647.759 744.428 620 716.669 620 682.428V682.428Z" fill="#FF743C"/>
<path d="M647.793 681.787C647.793 662.777 663.204 647.366 682.214 647.366V647.366C701.223 647.366 716.634 662.777 716.634 681.787V681.787C716.634 700.796 701.223 716.207 682.214 716.207V716.207C663.204 716.207 647.793 700.796 647.793 681.787V681.787Z" fill="#2D3652"/>
<path d="M867.573 248C867.573 179.517 923.09 124 991.573 124V248H867.573Z" fill="#FF743C"/>
<path d="M991.573 496V496C923.09 496 867.573 440.483 867.573 372V372H991.573V496Z" fill="#3699FF"/>
<path d="M867.573 372V372C867.573 303.516 923.09 248 991.573 248V248V372H867.573Z" fill="#6ED47C"/>
<path d="M928.29 372V372C928.29 337.049 956.622 308.717 991.573 308.717V308.717V372H928.29Z" fill="#D5E155"/>
<path d="M868 682.62C868 716.861 895.759 744.62 930 744.62V744.62C964.241 744.62 992 716.861 992 682.62V682.62C992 648.379 964.241 620.62 930 620.62H868V682.62Z" fill="#FFC700"/>
<path d="M868 652.69C868 670.4 882.358 684.758 900.07 684.758V684.758C917.78 684.758 932.138 670.4 932.138 652.69V652.69C932.138 634.978 917.78 620.62 900.07 620.62H868V652.69Z" fill="#FF743C"/>
<path d="M929.573 496C963.814 496 991.573 523.759 991.573 558V558C991.573 592.241 963.814 620 929.573 620V620C895.331 620 867.573 592.241 867.573 558V558C867.573 523.759 895.331 496 929.573 496V496Z" fill="#FF743C"/>
<path d="M930.214 523.793C949.223 523.793 964.635 539.204 964.635 558.214V558.214C964.635 577.223 949.223 592.634 930.214 592.634V592.634C911.204 592.634 895.793 577.223 895.793 558.214V558.214C895.793 539.204 911.204 523.793 930.214 523.793V523.793Z" fill="#2D3652"/>
<path d="M441.288 530.66H530.98C580.516 530.66 620.673 570.793 620.673 620.299V620.299H530.98C481.445 620.299 441.288 580.166 441.288 530.66V530.66Z" fill="#A04AE3"/>
<path d="M530.98 575.48H575.6C600.493 575.48 620.673 595.546 620.673 620.299V620.299H576.053C551.159 620.299 530.98 600.232 530.98 575.48V575.48Z" fill="#6ED47C"/>
</g>
</svg>
